<?xml version="1.0" standalone="no"?>
<!DOCTYPE svg PUBLIC "-//W3C//DTD SVG 20010904//EN"
 "http://www.w3.org/TR/2001/REC-SVG-20010904/DTD/svg10.dtd">
<svg version="1.0" xmlns="http://www.w3.org/2000/svg"
 width="1152.000000pt" height="1280.000000pt" viewBox="0 0 1152.000000 1280.000000"
 preserveAspectRatio="xMidYMid meet">
<g transform="translate(0.000000,1280.000000) scale(0.100000,-0.100000)"
fill="#fff" stroke="none">
<path d="M9630 12797 c-3 -3 -58 -13 -123 -21 -694 -96 -1250 -553 -1467
-1205 -97 -289 -118 -616 -60 -900 15 -76 17 -98 7 -108 -21 -21 -4949 -2863
-4964 -2863 -8 0 -46 28 -86 61 -366 316 -904 472 -1385 404 -273 -39 -574
-158 -792 -313 -343 -244 -592 -611 -695 -1022 -29 -117 -65 -353 -65 -430 0
-77 36 -313 65 -430 103 -411 352 -778 695 -1022 218 -155 519 -274 792 -313
482 -68 1001 81 1382 399 43 36 84 66 91 66 14 0 4943 -2844 4962 -2863 10
-10 8 -33 -9 -112 -19 -87 -22 -131 -22 -335 0 -208 2 -247 22 -340 63 -288
188 -555 362 -774 280 -352 686 -581 1157 -651 158 -24 265 -29 346 -16 40 6
106 16 147 22 771 114 1385 728 1499 1499 6 41 16 107 22 147 16 102 1 276
-41 481 -45 215 -143 446 -269 633 -259 386 -659 650 -1138 751 -95 20 -136
23 -338 23 -201 -1 -243 -4 -335 -23 -298 -65 -589 -202 -793 -376 -49 -41
-75 -57 -90 -54 -23 4 -4942 2841 -4966 2863 -11 11 -11 28 4 106 35 197 35
441 0 638 -15 78 -15 95 -4 106 24 22 4943 2858 4966 2863 15 3 40 -12 85 -50
207 -176 501 -315 798 -380 92 -19 134 -22 335 -23 203 0 243 3 340 23 771
162 1312 740 1432 1529 69 455 -88 988 -403 1363 -331 395 -802 620 -1354 647
-58 3 -107 3 -110 0z"/>
</g>
</svg>
